<svg xmlns="http://www.w3.org/2000/svg" viewBox="0 0 64 64"><style>.lg{fill:#cfcfcf}</style><defs><linearGradient id="g1k" gradientUnits="userSpaceOnUse" x1="0.0" y1="470.2" x2="0.0" y2="564.0"><stop offset="0.083" stop-color="#dddddb" class="lwa"/><stop offset="0.250" stop-color="#dadad8" class="lwa"/><stop offset="0.417" stop-color="#d8d8d7" class="lwb"/><stop offset="0.583" stop-color="#d2d2d1" class="lwb"/><stop offset="0.750" stop-color="#cccccb" class="lwc"/><stop offset="0.917" stop-color="#cacac9" class="lwc"/></linearGradient><linearGradient id="g2k" gradientUnits="userSpaceOnUse" x1="0.0" y1="470.0" x2="0.0" y2="564.0"><stop offset="0.083" stop-color="#e8e8e5" class="lwa"/><stop offset="0.250" stop-color="#eeeeec" class="lwa"/><stop offset="0.417" stop-color="#eeeeed" class="lwb"/><stop offset="0.583" stop-color="#e5e5e4" class="lwb"/><stop offset="0.750" stop-color="#dededd" class="lwc"/><stop offset="0.917" stop-color="#d7d8d6" class="lwc"/></linearGradient><linearGradient id="g3k" gradientUnits="userSpaceOnUse" x1="0.0" y1="469.5" x2="0.0" y2="565.2"><stop offset="0.083" stop-color="#dc2d0b"/><stop offset="0.250" stop-color="#e02a0e"/><stop offset="0.417" stop-color="#de160c"/><stop offset="0.583" stop-color="#de1909"/><stop offset="0.750" stop-color="#c81711"/><stop offset="0.917" stop-color="#b40e10"/></linearGradient><linearGradient id="g4k" gradientUnits="userSpaceOnUse" x1="0.0" y1="469.2" x2="0.0" y2="565.8"><stop offset="0.083" stop-color="#dfa346"/><stop offset="0.250" stop-color="#e8ac45"/><stop offset="0.417" stop-color="#f2ae34"/><stop offset="0.583" stop-color="#efa326"/><stop offset="0.750" stop-color="#db8d1d"/><stop offset="0.917" stop-color="#d48416"/></linearGradient><linearGradient id="g5k" gradientUnits="userSpaceOnUse" x1="0.0" y1="470.2" x2="0.0" y2="565.2"><stop offset="0.083" stop-color="#c81210"/><stop offset="0.250" stop-color="#d2120c"/><stop offset="0.417" stop-color="#db1d09"/><stop offset="0.583" stop-color="#d62208"/><stop offset="0.750" stop-color="#c11d0d"/><stop offset="0.917" stop-color="#b01510"/></linearGradient><linearGradient id="g6k" gradientUnits="userSpaceOnUse" x1="0.0" y1="470.2" x2="0.0" y2="564.0"><stop offset="0.083" stop-color="#dd9432"/><stop offset="0.250" stop-color="#f0a731"/><stop offset="0.417" stop-color="#fbb42e"/><stop offset="0.583" stop-color="#fab028"/><stop offset="0.750" stop-color="#ec9c24"/><stop offset="0.917" stop-color="#e39121"/></linearGradient><linearGradient id="g7k" gradientUnits="userSpaceOnUse" x1="437.0" y1="0.0" x2="587.2" y2="0.0"><stop offset="0.062" stop-color="#ab2424"/><stop offset="0.188" stop-color="#ae2a27"/><stop offset="0.312" stop-color="#bf3027"/><stop offset="0.438" stop-color="#c24b2f"/><stop offset="0.562" stop-color="#cd713b"/><stop offset="0.688" stop-color="#dd9345"/><stop offset="0.812" stop-color="#d39249"/><stop offset="0.938" stop-color="#dd9e4e"/></linearGradient><linearGradient id="g8k" gradientUnits="userSpaceOnUse" x1="490.5" y1="0.0" x2="543.0" y2="0.0"><stop offset="0.062" stop-color="#ba2220"/><stop offset="0.188" stop-color="#cb2119"/><stop offset="0.312" stop-color="#d22f1a"/><stop offset="0.438" stop-color="#d7421c"/><stop offset="0.562" stop-color="#dc5b1e"/><stop offset="0.688" stop-color="#e47723"/><stop offset="0.812" stop-color="#eb9332"/><stop offset="0.938" stop-color="#e4a44a"/></linearGradient><linearGradient id="g9k" gradientUnits="userSpaceOnUse" x1="287.5" y1="0.0" x2="367.8" y2="0.0"><stop offset="0.083" stop-color="#7f3938"/><stop offset="0.250" stop-color="#813636"/><stop offset="0.417" stop-color="#7e3637"/><stop offset="0.583" stop-color="#803839"/><stop offset="0.750" stop-color="#863b39"/><stop offset="0.917" stop-color="#8d3e3d"/></linearGradient><linearGradient id="g10k" gradientUnits="userSpaceOnUse" x1="657.2" y1="0.0" x2="738.0" y2="0.0"><stop offset="0.083" stop-color="#dfbc80"/><stop offset="0.250" stop-color="#ddb579"/><stop offset="0.417" stop-color="#dbb378"/><stop offset="0.583" stop-color="#dbb478"/><stop offset="0.750" stop-color="#ddb376"/><stop offset="0.917" stop-color="#dcb67c"/></linearGradient></defs><rect width="64" height="64" rx="14" fill="#0c0c0d"/><g transform="translate(-121.6 -71.2) scale(.3)"><path fill="url(#g7k)" fill-rule="evenodd" d="M573.2 425.8L454.2 425.6L448.8 425.1L445.2 423.9L441.1 421.0L438.5 417.5L436.7 412.0L436.4 408.0L445.9 313.2L446.8 309.8L449.9 305.2L454.0 302.8L459.2 302.1L474.2 302.3L476.8 301.7L479.0 288.2L482.8 279.2L489.5 271.0L498.0 265.5L506.8 262.8L515.2 262.4L521.2 263.5L529.5 266.9L537.2 273.4L542.8 281.5L545.8 289.2L547.8 301.6L570.1 302.8L573.8 304.8L576.8 308.8L578.3 314.5L587.9 411.8L586.2 417.5L582.5 422.1L578.5 424.7ZM536.3 302.2L538.4 301.0L538.6 296.2L537.2 289.0L534.8 283.2L527.5 275.2L522.8 272.5L517.2 270.7L506.0 271.0L501.8 272.5L497.2 275.2L493.1 278.8L490.2 282.5L487.9 287.0L486.4 292.5L486.1 300.0L486.6 301.2L488.0 302.0ZM505.8 418.8L570.5 418.6L575.8 417.6L579.1 414.5L580.1 411.0L579.6 400.5L570.5 314.2L569.8 311.8L568.5 310.4L565.5 309.9L548.0 310.2L547.0 311.8L546.1 319.8L544.8 321.0L542.5 321.3L540.8 321.0L539.4 319.8L538.5 311.4L536.2 309.9L458.2 310.1L456.2 310.5L454.8 311.8L445.0 392.5L443.2 409.8L444.1 414.0L447.5 417.5L451.5 418.8Z"/><path fill="url(#g8k)" fill-rule="evenodd" d="M495.5 396.0L493.0 395.5L491.3 394.0L490.4 389.0L489.9 340.5L491.0 337.8L494.5 336.1L501.8 339.2L538.8 360.5L542.3 363.2L543.5 366.0L542.7 368.5L540.0 370.9L501.5 393.5Z"/></g></svg>